# xmcd
#
# Track frame offsets:
#	150
#	16499
#	37030
#	57730
#	81343
#	111788
#	131975
#	151476
#	170113
#	194892
#
# Disc length: 2891 seconds
#
# Revision: 1
# Processed by: cddbd v1.5.1PL0 Copyright (c) Steve Scherf et al.
# Submitted via: audiograbber 1.83.01
#
DISCID=9b0b490a
DTITLE=Odessa Harris Group - The Easy Life
DYEAR=2003
DGENRE=Blues
TTITLE0=As If You Didn't Know
TTITLE1=My Dearest Darling
TTITLE2=Hard Workin'  Man
TTITLE3=Pick Up The Pieces
TTITLE4=Baby, Won't You Please Come Home
TTITLE5=The Soulful Miss D
TTITLE6=The Easy Life
TTITLE7=Our Love Is Here To Stay
TTITLE8=Black Night
TTITLE9=Road Warrior
EXTD=
EXTT0=
EXTT1=
EXTT2=
EXTT3=
EXTT4=
EXTT5=
EXTT6=
EXTT7=
EXTT8=
EXTT9=
PLAYORDER=
